<?xml version="1.0"?>
<svg width="512" height="512" xmlns="http://www.w3.org/2000/svg" xmlns:svg="http://www.w3.org/2000/svg" version="1.1" xml:space="preserve">
 <style type="text/css">.st0{fill:#000000;}</style>
 <g class="layer">
  <title>Layer 1</title>
  <g id="svg_1">
   <polygon class="st0" fill="#ffffff" id="svg_2" points="440.469,73.413 218.357,295.525 71.531,148.709 0,220.229 146.826,367.055 218.357,438.587    289.878,367.055 512,144.945  " stroke="#ffffff"/>
  </g>
  <path d="m182,203c-3.5,3.5 -4.2,4.19 -4.98,4.98c-0.87,0.88 -1.83,1.86 -2.88,2.93c-1.13,1.17 -2.35,2.45 -3.64,3.83c-2.85,3.07 -4.38,4.78 -5.99,6.59c-1.68,1.89 -3.4,3.85 -5.16,5.89c-1.81,2.09 -3.64,4.22 -5.48,6.39c-3.72,4.38 -5.56,6.58 -7.39,8.79c-1.84,2.21 -3.66,4.44 -5.48,6.7c-1.83,2.27 -3.66,4.57 -5.48,6.92c-3.71,4.79 -5.54,7.27 -7.39,9.78c-1.84,2.51 -3.65,5.01 -5.42,7.48c-1.73,2.42 -3.39,4.77 -4.97,7.04c-2.91,4.17 -4.2,6.05 -5.4,7.79c-1.11,1.62 -2.13,3.12 -3.09,4.53c-0.9,1.32 -1.74,2.57 -2.55,3.76c-1.53,2.26 -2.28,3.35 -3.01,4.42c-0.72,1.05 -1.42,2.08 -2.11,3.09c-0.67,0.99 -1.31,1.96 -1.93,2.91c-1.17,1.83 -1.7,2.73 -2.2,3.59c-0.48,0.83 -0.93,1.64 -1.35,2.41c-0.4,0.73 -0.77,1.42 -1.13,2.05c-0.63,1.12 -0.93,1.59 -1.21,2.01c-0.25,0.38 -0.5,0.72 -0.75,1.03c-0.23,0.29 -0.47,0.57 -0.7,0.85c-0.48,0.57 -0.74,0.88 -1,1.21c-0.27,0.34 -0.53,0.69 -0.8,1.05c-0.26,0.36 -0.52,0.73 -0.75,1.1c-0.45,0.71 -0.63,1.06 -0.8,1.4c-0.17,0.33 -0.32,0.66 -0.47,0.98c-0.15,0.33 -0.3,0.66 -0.47,0.98c-0.35,0.69 -0.57,1.04 -0.8,1.4c-0.24,0.37 -0.49,0.73 -0.75,1.1c-0.26,0.36 -0.53,0.71 -0.8,1.05c-0.51,0.64 -0.76,0.93 -1,1.2c-0.22,0.26 -0.44,0.51 -0.65,0.75c-0.2,0.23 -0.39,0.46 -0.56,0.7c-0.33,0.47 -0.47,0.74 -0.6,1c-0.14,0.27 -0.27,0.55 -0.4,0.84c-0.14,0.29 -0.28,0.59 -0.45,0.88c-0.35,0.61 -0.57,0.9 -0.8,1.2c-0.23,0.3 -0.48,0.59 -0.73,0.88c-0.25,0.29 -0.5,0.56 -0.73,0.84c-0.44,0.51 -0.63,0.76 -0.8,1c-0.16,0.23 -0.3,0.45 -0.43,0.66c-0.12,0.21 -0.23,0.42 -0.34,0.62c-0.21,0.4 -0.3,0.6 -0.4,0.8c-0.1,0.2 -0.19,0.39 -0.28,0.58c-0.09,0.18 -0.17,0.36 -0.24,0.54c-0.12,0.32 -0.17,0.46 -0.2,0.6c-0.03,0.13 -0.06,0.25 -0.08,0.36c-0.02,0.11 -0.05,0.22 -0.08,0.32c-0.07,0.21 -0.14,0.3 -0.2,0.4c-0.07,0.1 -0.14,0.2 -0.22,0.3c-0.07,0.1 -0.15,0.2 -0.22,0.3c-0.12,0.2 -0.17,0.3 -0.2,0.4c-0.03,0.1 -0.06,0.19 -0.08,0.28c-0.02,0.09 -0.05,0.17 -0.08,0.24c-0.07,0.13 -0.14,0.17 -0.2,0.2c-0.07,0.04 -0.15,0.06 -0.24,0.08c-0.09,0.03 -0.19,0.05 -0.28,0.08c-0.2,0.07 -0.3,0.13 -0.4,0.2c-0.1,0.07 -0.19,0.15 -0.28,0.24l-0.08,0.09l-0.08,0.09l-0.07,0.1" fill="none" id="svg_3" stroke="#ffffff" transform="matrix(1 0 0 1 0 0)"/>
  <rect fill="#ffffff" height="306.97" id="svg_4" stroke="#ffffff" transform="rotate(-45 147.75 290.75)" width="107.16" x="94.17" y="137.27"/>
  <rect fill="#ffffff" height="0" id="svg_5" stroke="#ffffff" width="0" x="248" y="76"/>
  <rect fill="#ffffff" height="326" id="svg_6" stroke="#ffffff" transform="rotate(45 356 219)" width="114" x="299" y="56"/>
  <rect fill="#ffffff" height="0" id="svg_7" opacity="0.5" stroke="#ffffff" width="0" x="193" y="121"/>
 </g>
</svg>