<?xml version="1.0"?>
<svg width="93" height="87" xmlns="http://www.w3.org/2000/svg" xmlns:svg="http://www.w3.org/2000/svg">
 <g class="layer">
  <title>Layer 1</title>
  <circle cx="33.94" cy="36.83" fill="#007f00" id="svg_1" r="6.83"/>
  <circle cx="79" cy="27" fill="#007f00" id="svg_2" r="13"/>
  <path clip-rule="evenodd" d="m32.55,49.44c-0.13,-0.66 -0.61,-1.2 -1.26,-1.4c-0.72,-0.22 -1.51,0.02 -1.98,0.62l-2.7,3.4c-1.85,2.34 -4.82,3.44 -7.79,3.18c-7.27,-0.65 -14.77,-0.07 -22.24,1.9c-34.53,9.11 -55.14,44.5 -46.02,79.03c9.11,34.53 44.49,55.14 79.03,46.02c34.53,-9.11 55.13,-44.5 46.02,-79.03c-5.23,-19.8 -19.09,-35.02 -36.48,-42.69c-2.9,-1.27 -5.13,-3.77 -5.75,-6.88l-0.83,-4.15z" fill="#007f00" fill-rule="evenodd" id="svg_3"/>
  <circle cx="21.55" cy="4.55" fill="#007f00" id="svg_4" r="3.49" transform="rotate(-22.0902 21.5475 4.5476)"/>
 </g>
</svg>